Coordinates
version=1
nRows=16
nColumns=40
inDegrees=yes

Units are S.I. units (second, meters, Newtons, ...)
If the header above contains a line with 'inDegrees', this indicates whether rotational values are in degrees (yes) or radians (no).

endheader
time	pelvis_tilt	pelvis_list	pelvis_rotation	pelvis_tx	pelvis_ty	pelvis_tz	hip_flexion_r	hip_adduction_r	hip_rotation_r	knee_angle_r	knee_angle_r_beta	ankle_angle_r	subtalar_angle_r	mtp_angle_r	hip_flexion_l	hip_adduction_l	hip_rotation_l	knee_angle_l	knee_angle_l_beta	ankle_angle_l	subtalar_angle_l	mtp_angle_l	lumbar_extension	lumbar_bending	lumbar_rotation	arm_flex_r	arm_add_r	arm_rot_r	elbow_flex_r	pro_sup_r	wrist_flex_r	wrist_dev_r	arm_flex_l	arm_add_l	arm_rot_l	elbow_flex_l	pro_sup_l	wrist_flex_l	wrist_dev_l
      0.00000000	     -1.48654080	     10.62351393	    -80.63588650	      0.28287321	      0.84991441	     -0.14438676	     34.73559345	     -6.50017583	    -20.20724520	      4.61318130	      0.08051520	     -5.24709606	      0.00000000	      0.00000000	     -1.38802618	      0.77053280	      1.22427855	      9.13187690	      0.15938132	      5.11742691	      0.00000000	      0.00000000	      1.08170666	      4.42920120	    -14.60745184	    -11.83504370	     -5.72146855	     -1.56882798	     31.97846704	     89.09983710	    -24.62816028	      3.41762366	     12.49252621	    -13.97697105	     13.99329198	     62.74738646	     89.34408553	    -19.15597569	     -0.16357831
      0.01000000	     -1.39440521	     10.69475534	    -80.51328038	      0.28215675	      0.84817163	     -0.13338670	     34.96286891	     -6.43923710	    -20.09397915	      4.61082809	      0.08047413	     -5.30340673	      0.00000000	      0.00000000	     -1.98671896	      0.65341041	      1.26163372	      9.34764413	      0.16314717	      5.10478508	      0.00000000	      0.00000000	      1.18161733	      4.36365346	    -14.69827963	    -12.06999084	     -5.73259197	     -1.59671519	     31.84597260	     89.09217161	    -24.63475573	      3.43812849	     12.41289462	    -13.93815735	     13.99175203	     62.76000128	     89.27877339	    -19.16089616	     -0.17011508
      0.02000000	     -1.35191314	     10.58637210	    -80.34946009	      0.28143902	      0.84685368	     -0.12242921	     34.93424045	     -6.36307609	    -19.70171164	      4.85694496	      0.08476968	     -5.47868884	      0.00000000	      0.00000000	     -2.60745709	      0.43419145	      1.32982975	      9.88334668	      0.17249694	      5.14049179	      0.00000000	      0.00000000	      1.06112421	      4.39988840	    -14.91219183	    -12.05407008	     -5.71036747	     -1.72626888	     31.49891837	     89.09680105	    -24.65973052	      3.47669693	     12.23317652	    -13.84565175	     13.73898204	     62.70969582	     89.34567512	    -19.22038944	     -0.22430205
      0.03000000	     -1.36523498	     10.26046917	    -80.20144542	      0.28055878	      0.84590423	     -0.11102410	     34.69751472	     -6.24122727	    -19.76807342	      5.55306319	      0.09691924	     -5.67902866	      0.00000000	      0.00000000	     -3.45141546	      0.09204914	      1.23295203	     10.46430261	      0.18263653	      5.18078756	      0.00000000	      0.00000000	      0.70813457	      4.51934073	    -15.08142152	    -12.03196650	     -5.72283639	     -1.66961031	     31.17679136	     89.09864919	    -24.68247758	      3.45256848	     11.91146620	    -13.72685275	     13.39141689	     62.75775441	     89.34721098	    -19.32378144	     -0.42408990
      0.04000000	     -1.47139630	     10.10688407	    -80.04958630	      0.27967629	      0.84482556	     -0.09936590	     34.63100042	     -6.09976641	    -19.52686576	      6.50348418	      0.11350721	     -6.07369025	      0.00000000	      0.00000000	     -4.12569022	     -0.31731806	      1.34341270	     10.97484796	      0.19154723	      4.91389413	      0.00000000	      0.00000000	      0.64077300	      4.71926252	    -15.17485501	    -12.09380818	     -5.76267807	     -1.69283918	     30.89578896	     89.09273788	    -24.69995834	      3.47463674	     11.58432457	    -13.56122720	     13.26524232	     62.51363412	     89.36019927	    -19.36694325	     -0.46196596
      0.05000000	     -1.60652046	      9.74139354	    -79.96549007	      0.27858474	      0.84418581	     -0.08746894	     34.43958788	     -5.94268818	    -19.84246978	      7.94941620	      0.13874349	     -6.48668197	      0.00000000	      0.00000000	     -4.91065101	     -0.82450368	      1.16617051	     11.74155626	      0.20492882	      4.56307141	      0.00000000	      0.00000000	      0.31183129	      4.97199819	    -15.14341242	    -12.06941383	     -5.80994832	     -1.59975947	     30.49765004	     89.09169951	    -24.72932802	      3.48390588	     11.18803087	    -13.31704518	     12.95433780	     62.31579744	     89.35470806	    -19.46332025	     -0.66566670
      0.06000000	     -1.81886255	      9.51283914	    -79.78150378	      0.27758353	      0.84355707	     -0.07528407	     34.25836378	     -5.76840602	    -19.50010543	      9.30419346	      0.16238881	     -7.08193558	      0.00000000	      0.00000000	     -5.55900517	     -1.39487371	      1.23803400	     12.41226566	      0.21663490	      4.05279501	      0.00000000	      0.00000000	      0.23724614	      5.28646085	    -15.26538909	    -12.07485352	     -5.86481093	     -1.59329158	     30.20904535	     89.08542140	    -24.74715918	      3.50834771	     10.66485237	    -13.10066995	     12.83679799	     61.88391856	     89.36351982	    -19.51310173	     -0.71487253
      0.07000000	     -2.17178316	      8.77501890	    -79.67356191	      0.27634541	      0.84383410	     -0.06277203	     33.60787229	     -5.40388305	    -20.05477683	     10.96724930	      0.19141461	     -7.76713365	      0.00000000	      0.00000000	     -6.60222658	     -2.24985914	      0.82766329	     13.36917191	      0.23333607	      3.27736958	      0.00000000	      0.00000000	     -0.43025767	      5.82805475	    -15.22352562	    -11.88030362	     -6.00257454	     -0.96642427	     29.59777791	     89.06657001	    -25.01396932	      3.44203673	     10.09107759	    -12.74358818	     12.41978327	     61.47391668	     89.35599012	    -19.97915356	     -1.82325392
      0.08000000	     -2.40196439	      8.52273471	    -79.61797992	      0.27501228	      0.84361285	     -0.05025737	     33.46205670	     -5.21577122	    -19.93712870	     12.65013421	      0.22078649	     -8.59417345	      0.00000000	      0.00000000	     -7.06945093	     -2.87749058	      0.66760958	     14.42510258	      0.25176553	      2.23534471	      0.00000000	      0.00000000	     -0.52465501	      6.13892990	    -15.05994564	    -11.88257134	     -6.03125263	     -0.97722445	     29.22147030	     89.06583746	    -25.06384074	      3.49690656	      9.49100128	    -12.40951573	     12.26780107	     60.88516335	     89.35646636	    -20.12575255	     -1.88744259
      0.09000000	     -2.66471939	      8.25056553	    -79.61013941	      0.27350164	      0.84362690	     -0.03753297	     33.26563873	     -4.96613308	    -19.83589120	     14.31921792	      0.24991750	     -9.38878939	      0.00000000	      0.00000000	     -7.45334886	     -3.57110192	      0.26524879	     15.65488364	      0.27322926	      0.97243917	      0.00000000	      0.00000000	     -0.59734635	      6.46334117	    -14.87400404	    -11.82842769	     -6.08822404	     -0.84877815	     28.80773555	     89.06438648	    -25.09870759	      3.58079217	      8.79197478	    -12.07764281	     12.08077886	     60.21116357	     89.35878488	    -20.30250208	     -2.05508033
      0.10000000	     -2.95004289	      7.98248103	    -79.64793854	      0.27180595	      0.84386869	     -0.02467077	     33.02737524	     -4.64692851	    -19.65817021	     15.91077052	      0.27769533	    -10.11546588	      0.00000000	      0.00000000	     -7.71848291	     -4.30899504	     -0.19858578	     17.05653285	      0.29769266	     -0.55408651	      0.00000000	      0.00000000	     -0.64534044	      6.79590607	    -14.62104730	    -11.74818326	     -6.14670043	     -0.65239712	     28.36362284	     89.06191886	    -25.12153489	      3.69932682	      8.03138682	    -11.73002110	     11.89059862	     59.41671169	     89.35890006	    -20.49147427	     -2.25616639
      0.11000000	     -3.25954756	      7.92216275	    -79.83552458	      0.26978498	      0.84406495	     -0.01166453	     32.98410299	     -4.21512828	    -19.19867164	     17.40242995	      0.30372970	    -10.77502347	      0.00000000	      0.00000000	     -7.65610494	     -5.05243254	     -0.93246502	     18.64522939	      0.32542064	     -2.28494126	      0.00000000	      0.00000000	     -0.42363276	      7.08852613	    -14.26449122	    -11.57678265	     -6.28658834	      0.17776827	     27.72566823	     89.03253248	    -25.45407948	      3.98529880	      7.14816715	    -11.34574352	     11.84921145	     58.28762796	     89.34888885	    -21.93875754	     -3.97019027
      0.12000000	     -3.53231736	      7.63141389	    -79.87606033	      0.26790501	      0.84481984	      0.00126202	     32.58276099	     -3.84196346	    -19.05543790	     18.76881106	      0.32757755	    -11.09106957	      0.00000000	      0.00000000	     -7.65811438	     -5.84423314	     -1.46226958	     20.42327019	      0.35645331	     -4.29997085	      0.00000000	      0.00000000	     -0.47732791	      7.36854877	    -13.93773939	    -11.46666003	     -6.28310576	      0.21040454	     27.35350578	     89.04182965	    -25.44409489	      4.07893070	      6.35539095	    -11.00691412	     11.76420274	     57.28258999	     89.34730262	    -22.14403044	     -3.92252665
      0.13000000	     -3.81908212	      7.31492463	    -79.93094996	      0.26595301	      0.84583307	      0.01399588	     32.12141048	     -3.39146261	    -18.66646682	     20.05546495	      0.35003390	    -11.22821262	      0.00000000	      0.00000000	     -7.55915116	     -6.65287294	     -1.81434067	     22.31151402	      0.38940938	     -6.31141090	      0.00000000	      0.00000000	     -0.56786999	      7.66441093	    -13.58780016	    -11.27836437	     -6.28328300	      0.30492622	     27.01277807	     89.05036711	    -25.41871260	      4.19727366	      5.58431701	    -10.64293145	     11.61949847	     56.11747600	     89.34803408	    -22.28192793	     -3.84541723
      0.14000000	     -4.21075984	      7.61322302	    -80.20849887	      0.26329191	      0.84607376	      0.02710030	     32.21676313	     -2.74753534	    -18.39639489	     21.07072907	      0.36775360	    -11.14658750	      0.00000000	      0.00000000	     -6.59014002	     -7.59235374	     -2.99017208	     24.62623625	      0.42980890	     -8.69652552	      0.00000000	      0.00000000	      0.14654455	      7.87985980	    -13.04131670	    -11.15505708	     -6.38466756	      1.03487557	     26.51086931	     89.03220493	    -25.38957244	      4.80130911	      4.61338919	    -10.35460306	     12.06074380	     54.61520996	     89.32451198	    -24.74973692	     -5.52467214
      0.15000000	     -4.53907576	      7.34815629	    -80.30919472	      0.26095529	      0.84733490	      0.03984500	     31.57536830	     -2.12249760	    -18.23830389	     21.91085557	      0.38241657	    -10.75406205	      0.00000000	      0.00000000	     -6.09000851	     -8.57332408	     -3.67799362	     26.93504370	      0.47010520	    -11.04975103	      0.00000000	      0.00000000	      0.14482828	      8.14115364	    -12.57878089	    -10.93520780	     -6.37255274	      1.24029987	     26.20401536	     89.03951507	    -25.32705570	      4.95329472	      3.79589993	    -10.09279882	     12.11565575	     53.34130210	     89.31904105	    -24.86048434	     -5.37961947
